<svg width="2629" height="1396" viewBox="0 0 2629 1396" fill="none" xmlns="http://www.w3.org/2000/svg">
<path d="M143.44 885.97L143.384 884.146C139.179 743.265 143.338 107.91 143.384 101.517V99.8329L145.077 99.8143C146.985 99.7957 338.151 97.7205 528.62 97.432C544.054 97.4041 558.939 97.3948 573.183 97.3948C915.288 97.3948 921.93 104.03 924.2 106.273C924.796 106.859 924.917 107.482 924.917 107.91C924.917 165.448 899.156 255.035 857.69 341.719C821.175 418.045 755.158 529.306 647.973 625.937C587.603 680.358 523.624 727.882 457.811 767.19C405.145 798.644 351.194 824.933 297.458 845.331C224.194 873.146 165.861 883.969 145.245 885.802L143.431 885.96L143.44 885.97ZM146.808 103.23C146.575 139.727 142.752 741.497 146.761 882.21C168.708 879.93 225.505 868.996 296.397 842.065C349.929 821.732 403.684 795.526 456.155 764.184C521.744 725.007 585.51 677.631 645.684 623.387C752.45 527.128 818.225 416.286 854.602 340.239C895.713 254.3 921.307 165.616 921.493 108.534C915.204 105.351 853.932 100.345 527.103 100.857C346.701 101.145 166.122 103.015 146.808 103.22V103.23Z" fill="white" fill-opacity="0.14"/>
<path d="M55.458 849.705L55.5138 847.881C59.7655 707 102.04 73.0506 102.468 66.6575L102.58 64.9731L104.264 65.0569C106.171 65.15 297.114 74.5581 487.266 85.6972C872.651 108.273 879.396 115.802 881.61 118.268C882.168 118.891 882.252 119.524 882.224 119.943C878.772 177.378 847.68 265.253 801.089 349.294C760.061 423.284 687.485 530.385 574.7 620.409C511.176 671.107 444.461 714.705 376.407 749.993C321.954 778.227 266.524 801.231 211.653 818.372C118.172 847.574 57.8862 849.621 57.2815 849.639L55.458 849.695V849.705ZM105.78 68.5745C103.352 104.988 63.4496 705.381 59.0026 846.131C69.7108 845.545 126.731 841.329 210.778 815.059C265.436 797.974 320.661 775.044 374.918 746.903C442.74 711.727 509.232 668.269 572.551 617.729C684.899 528.058 757.205 421.358 798.084 347.637C844.275 264.322 875.144 177.332 878.754 120.371C872.669 116.816 811.825 108.134 485.527 89.038C305.431 78.4945 125.066 69.5237 105.771 68.5652L105.78 68.5745Z" fill="white" fill-opacity="0.14"/>
<path d="M129.68 860.313L129.624 858.489C125.419 717.609 129.578 82.2541 129.624 75.861V74.1767L131.318 74.158C133.225 74.1394 324.391 72.0642 514.86 71.7757C530.294 71.7478 545.18 71.7385 559.423 71.7385C901.528 71.7385 908.171 78.3736 910.441 80.6163C911.036 81.2025 911.157 81.826 911.157 82.2541C911.157 139.792 885.396 229.379 843.931 316.063C807.415 392.389 741.398 503.649 634.213 600.281C573.843 654.701 509.864 702.226 444.052 741.534C391.385 772.988 337.435 799.277 283.698 819.675C210.434 847.49 152.101 858.313 131.485 860.146L129.671 860.304L129.68 860.313ZM133.048 77.5733C132.816 114.071 128.992 715.841 133.002 856.554C154.948 854.274 211.746 843.34 282.638 816.409C336.169 796.075 389.924 769.87 442.396 738.528C507.985 699.351 571.75 651.975 631.925 597.731C738.691 501.472 804.466 390.63 840.842 314.583C881.954 228.644 907.547 139.959 907.733 82.8776C901.444 79.695 840.172 74.6885 513.343 75.2003C332.941 75.4888 152.362 77.3592 133.048 77.564V77.5733Z" fill="white" fill-opacity="0.14"/>
<path d="M91.7965 821.229L91.7407 819.405C87.5355 678.524 91.6941 43.1699 91.7407 36.7768V35.0924L93.4339 35.0738C95.3411 35.0552 286.507 32.98 476.976 32.6915C492.41 32.6636 507.296 32.6543 521.539 32.6543C863.644 32.6543 870.287 39.2893 872.557 41.532C873.152 42.1183 873.273 42.7418 873.273 43.1699C873.273 100.708 847.512 190.295 806.047 276.978C769.531 353.305 703.514 464.565 596.33 561.197C535.96 615.617 471.98 663.142 406.168 702.45C353.501 733.903 299.551 760.192 245.814 780.591C172.55 808.406 114.218 819.228 93.6013 821.062L91.7872 821.22L91.7965 821.229ZM95.1643 38.489C94.9317 74.9865 91.108 676.756 95.1178 817.47C117.065 815.19 173.862 804.255 244.754 777.324C298.286 756.991 352.041 730.786 404.512 699.444C470.101 660.266 533.866 612.891 594.041 558.647C700.807 462.388 766.582 351.546 802.958 275.499C844.07 189.56 869.664 100.875 869.85 43.7934C863.561 40.6108 802.288 35.6042 475.46 36.1161C295.057 36.4045 114.478 38.275 95.1643 38.4797V38.489Z" fill="white" fill-opacity="0.14"/>
<path d="M0.00930273 784.545L0.0744272 782.721C4.85638 641.869 49.522 8.07745 49.9686 1.68435L50.0895 0L51.7735 0.0930585C53.6807 0.195422 244.587 10.3201 434.692 22.1758C819.993 46.2034 826.701 53.7504 828.906 56.235C829.464 56.8585 829.548 57.4913 829.52 57.9194C825.854 115.336 794.427 203.099 747.519 286.963C706.222 360.805 633.236 467.627 520.107 557.223C456.397 607.679 389.515 651.035 321.321 686.062C266.757 714.091 211.243 736.89 156.307 753.818C62.7143 782.666 2.41888 784.48 1.82347 784.499L0 784.545H0.00930273ZM53.2713 3.61066C50.7129 40.015 8.54053 640.249 3.5632 780.991C14.2714 780.451 71.3106 776.44 155.451 750.495C210.173 733.615 265.491 710.899 319.851 682.963C387.803 648.048 454.462 604.841 517.967 554.543C630.659 465.291 703.365 358.869 744.514 285.298C791.022 202.16 822.216 115.29 826.04 58.3382C819.965 54.7554 759.158 45.8498 432.934 25.5259C252.894 14.2937 72.5666 4.6436 53.2713 3.61066Z" fill="white" fill-opacity="0.14"/>
<path d="M78.0367 795.564L77.9809 793.74C73.7758 652.859 77.9344 17.5043 77.9809 11.1112V9.42689L79.6741 9.40828C81.5813 9.38967 272.748 7.31447 463.216 7.02599C478.651 6.99808 493.536 6.98877 507.78 6.98877C849.884 6.98877 856.527 13.6238 858.797 15.8665C859.393 16.4528 859.513 17.0763 859.513 17.5043C859.513 75.0422 833.752 164.629 792.287 251.313C755.771 327.639 689.754 438.9 582.57 535.531C522.2 589.952 458.22 637.476 392.408 676.784C339.742 708.238 285.791 734.527 232.055 754.925C158.79 782.74 100.458 793.563 79.8416 795.396L78.0274 795.554L78.0367 795.564ZM81.4045 12.8235C81.172 49.3209 77.3483 651.091 81.358 791.804C103.305 789.524 160.102 778.59 230.994 751.659C284.526 731.326 338.281 705.12 390.752 673.778C456.341 634.601 520.107 587.225 580.281 532.981C687.047 436.722 752.822 325.88 789.198 249.833C830.31 163.894 855.904 75.2097 856.09 18.1278C849.801 14.9452 788.528 9.93871 461.7 10.4505C281.298 10.739 100.718 12.6095 81.4045 12.8142V12.8235Z" fill="white" fill-opacity="0.14"/>
<path d="M968.244 1342.48L970.737 1343.73H970.747C971.128 1342.96 1010.27 1265.58 1097.97 1175.35C1149.47 1122.37 1207.4 1075.38 1270.14 1035.69C1348.56 986.091 1434.77 947.816 1526.37 921.946C1627.89 893.276 1743.93 878.545 1866.78 862.95L1866.8 862.947L1866.85 862.941C2103.11 832.951 2347.42 801.939 2494.29 665.431L2492.39 663.384C2346.18 799.279 2102.32 830.234 1866.49 860.169L1866.45 860.174C1743.48 875.78 1627.33 890.529 1525.61 919.257C1433.72 945.21 1347.25 983.606 1268.58 1033.37C1205.65 1073.19 1147.54 1120.34 1095.89 1173.49C1007.95 1263.99 968.671 1341.64 968.245 1342.48L968.244 1342.48Z" fill="white" fill-opacity="0.14"/>
<path d="M944 1336.49L946.521 1337.68V1337.69C946.893 1336.91 984.256 1258.67 1069.88 1166.47C1120.17 1112.32 1177.01 1064.03 1238.83 1022.92C1316.11 971.546 1401.42 931.326 1492.42 903.372C1593.25 872.397 1708.91 855.033 1831.36 836.648L1831.42 836.639C2066.97 801.277 2310.52 764.706 2454.26 624.886L2452.31 622.885C2309.21 762.079 2066.11 798.577 1831.02 833.874L1831.01 833.876L1830.95 833.884C1708.39 852.288 1592.63 869.671 1491.6 900.701C1400.32 928.739 1314.74 969.089 1237.22 1020.63C1175.21 1061.87 1118.2 1110.32 1067.76 1164.64C981.874 1257.15 944.372 1335.71 944 1336.49Z" fill="white" fill-opacity="0.14"/>
<path d="M1006.4 1373.18L1008.84 1374.52L1008.84 1374.51C1009.24 1373.75 1051.12 1297.83 1141.99 1210.78C1195.35 1159.66 1254.91 1114.77 1319.03 1077.35C1399.17 1030.57 1486.7 995.406 1579.16 972.821C1681.64 947.788 1798.14 937.207 1921.48 926.012C2158.69 904.479 2403.96 882.201 2555.62 751.017L2553.8 748.904C2402.82 879.511 2158 901.743 1921.24 923.239L1921.2 923.243C1797.77 934.455 1681.18 945.045 1578.51 970.122C1485.76 992.782 1397.96 1028.06 1317.57 1074.99C1253.25 1112.53 1193.51 1157.57 1139.99 1208.85C1048.84 1296.19 1006.82 1372.42 1006.4 1373.18Z" fill="white" fill-opacity="0.14"/>
<path d="M982.376 1366.34L984.86 1367.62H984.869L984.874 1367.61C985.513 1366.39 1025.66 1289.73 1114.26 1200.91C1166.44 1148.59 1224.97 1102.36 1288.22 1063.49C1367.27 1014.9 1453.97 977.753 1545.9 953.064C1647.78 925.715 1764.01 912.482 1887.07 898.477L1887.15 898.467C2123.78 871.529 2368.44 843.677 2517.06 709.085L2515.17 707.009C2367.21 841.01 2122.97 868.808 1886.76 895.692L1886.74 895.694C1763.58 909.709 1647.25 922.951 1545.17 950.366C1452.95 975.129 1365.98 1012.4 1286.68 1061.14C1223.23 1100.14 1164.53 1146.53 1112.19 1199.02C1023.05 1288.4 982.776 1365.57 982.376 1366.34Z" fill="white" fill-opacity="0.14"/>
<path d="M1054.3 1393.97L1056.69 1395.42C1057.14 1394.67 1102.21 1320.61 1196.71 1237.52C1252.2 1188.72 1313.62 1146.42 1379.28 1111.77C1461.34 1068.45 1550.28 1037.05 1643.63 1018.43C1747.05 997.796 1863.84 992.2 1987.49 986.274L1987.64 986.267L1987.68 986.266C2225.57 974.867 2471.55 963.08 2628.66 838.491L2626.92 836.304C2470.52 960.335 2224.98 972.103 1987.54 983.483L1987.5 983.485C1863.68 989.413 1746.73 995.015 1643.08 1015.69C1549.44 1034.37 1460.22 1065.87 1377.9 1109.33C1312.04 1144.09 1250.44 1186.55 1194.77 1235.5C1099.99 1318.86 1054.75 1393.23 1054.3 1393.97Z" fill="white" fill-opacity="0.14"/>
<path d="M1030.61 1386.11L1033.02 1387.5L1033.06 1387.51C1033.48 1386.75 1076.86 1311.68 1169.44 1226.46C1223.8 1176.42 1284.25 1132.72 1349.1 1096.59C1430.15 1051.42 1518.36 1018 1611.26 997.258C1714.22 974.272 1830.9 966.009 1954.44 957.271C2192.02 940.464 2437.69 923.081 2591.93 794.94L2590.14 792.79C2436.59 920.355 2191.37 937.71 1954.23 954.488C1830.59 963.236 1713.8 971.499 1610.64 994.531C1517.44 1015.33 1428.97 1048.86 1347.66 1094.18C1282.61 1130.43 1221.97 1174.27 1167.44 1224.48C1074.57 1309.98 1031.03 1385.36 1030.61 1386.11Z" fill="white" fill-opacity="0.14"/>
</svg>