<svg width="484" height="172" viewBox="0 0 484 172" fill="none" xmlns="http://www.w3.org/2000/svg">
<path d="M0 1C48.4 1 48.4 16 96.8 16C145.2 16 145.2 1 193.588 1C241.977 1 241.988 16 290.388 16C338.788 16 338.8 1 387.2 1C435.6 1 435.6 16 484 16" stroke="var(--text-canari)" stroke-miterlimit="10"/>
<path d="M0 104C48.4 104 48.4 120 96.8 120C145.2 120 145.2 104 193.588 104C241.977 104 241.988 120 290.388 120C338.788 120 338.8 104 387.2 104C435.6 104 435.6 120 484 120" stroke="#3B3D49" stroke-miterlimit="10"/>
<path d="M0 52C48.4 52 48.4 68 96.8 68C145.2 68 145.2 52 193.588 52C241.977 52 241.988 68 290.388 68C338.788 68 338.8 52 387.2 52C435.6 52 435.6 68 484 68" stroke="#3B3D49" stroke-miterlimit="10"/>
<path d="M0 156C48.4 156 48.4 171 96.8 171C145.2 171 145.2 156 193.588 156C241.977 156 241.988 171 290.388 171C338.788 171 338.8 156 387.2 156C435.6 156 435.6 171 484 171" stroke="#3B3D49" stroke-miterlimit="10"/>
</svg>
